<svg width="24" height="24" viewBox="0 0 24 24" fill="none" xmlns="http://www.w3.org/2000/svg">
    <path
        d="M17.569 12.6254C17.5975 15.7046 20.323 16.7296 20.3535 16.7421C20.3323 16.8121 19.9162 18.2362 18.9548 19.7067C18.1201 21.0062 17.2531 22.3017 15.8855 22.3281C14.5433 22.3546 14.1133 21.5156 12.5761 21.5156C11.0389 21.5156 10.5583 22.3017 9.29158 22.3546C7.97056 22.4076 6.96603 21.0042 6.12429 19.7092C4.40407 17.0467 3.08171 12.2254 4.84753 9.17917C5.72515 7.68125 7.30294 6.73542 9.02133 6.70896C10.3145 6.6825 11.5354 7.60042 12.3262 7.60042C13.117 7.60042 14.6316 6.49354 16.2002 6.65625C16.8587 6.6825 18.7132 6.92542 19.9012 8.66417C19.8068 8.72167 17.5478 10.0683 17.569 12.6254Z"
        fill="white"
    />
    <path
        d="M15.4122 4.9375C16.1275 4.08375 16.6069 2.90042 16.4758 1.70875C15.4448 1.75 14.2006 2.41042 13.4618 3.26417C12.7977 4.02042 12.2138 5.2225 12.3714 6.37792C13.5208 6.46875 14.6969 5.79125 15.4122 4.9375Z"
        fill="white"
    />
</svg>
