<svg width="22" height="22" viewBox="0 0 22 22" fill="none" xmlns="http://www.w3.org/2000/svg">
<path d="M10.54 18.445C8.6955 18.445 7.06326 17.8852 5.64329 16.7656C4.22332 15.6461 3.30107 14.215 2.87654 12.4723C2.81798 12.2528 2.8619 12.0516 3.00829 11.8689C3.15468 11.6862 3.3523 11.58 3.60116 11.5501C3.83539 11.5208 4.04765 11.5647 4.23796 11.6818C4.42826 11.799 4.56001 11.9746 4.63321 12.2088C4.98454 13.5263 5.70917 14.6023 6.80708 15.4367C7.905 16.2711 9.1493 16.6883 10.54 16.6883C12.2527 16.6883 13.7058 16.092 14.8992 14.8992C16.0925 13.7064 16.6889 12.2533 16.6883 10.54C16.6877 8.82667 16.0914 7.37391 14.8992 6.18172C13.707 4.98953 12.2539 4.39285 10.54 4.39168C9.52991 4.39168 8.58571 4.6259 7.70737 5.09434C6.82904 5.56279 6.08978 6.2069 5.48958 7.02668H7.02666C7.27553 7.02668 7.48428 7.111 7.65292 7.27964C7.82156 7.44828 7.90558 7.65673 7.905 7.90501C7.90441 8.15329 7.82009 8.36204 7.65204 8.53126C7.48398 8.70049 7.27553 8.78451 7.02666 8.78334H3.51333C3.26447 8.78334 3.05601 8.69902 2.88796 8.53038C2.7199 8.36174 2.63558 8.15329 2.635 7.90501V4.39168C2.635 4.14282 2.71932 3.93436 2.88796 3.7663C3.0566 3.59825 3.26506 3.51393 3.51333 3.51334C3.76161 3.51276 3.97036 3.59708 4.13958 3.7663C4.30881 3.93553 4.39284 4.14399 4.39166 4.39168V5.57743C5.13825 4.64054 6.04967 3.91591 7.12592 3.40355C8.20217 2.89119 9.34019 2.63501 10.54 2.63501C11.6379 2.63501 12.6664 2.84376 13.6256 3.26126C14.5847 3.67876 15.4191 4.24207 16.1288 4.95117C16.8385 5.66028 17.4021 6.4947 17.8196 7.45443C18.2371 8.41415 18.4456 9.44268 18.445 10.54C18.4444 11.6373 18.236 12.6659 17.8196 13.6256C17.4033 14.5853 16.8397 15.4197 16.1288 16.1288C15.418 16.838 14.5836 17.4015 13.6256 17.8196C12.6676 18.2377 11.6391 18.4462 10.54 18.445ZM11.4183 10.1887L13.6142 12.3845C13.7752 12.5455 13.8557 12.7505 13.8557 12.9993C13.8557 13.2482 13.7752 13.4531 13.6142 13.6142C13.4531 13.7752 13.2482 13.8557 12.9993 13.8557C12.7505 13.8557 12.5455 13.7752 12.3845 13.6142L9.92517 11.1548C9.83733 11.067 9.77146 10.9683 9.72754 10.8588C9.68362 10.7493 9.66166 10.6357 9.66166 10.5181V7.02668C9.66166 6.77782 9.74599 6.56936 9.91463 6.4013C10.0833 6.23325 10.2917 6.14893 10.54 6.14834C10.7883 6.14776 10.997 6.23208 11.1663 6.4013C11.3355 6.57053 11.4195 6.77899 11.4183 7.02668V10.1887Z" fill="#9DB2CE"/>
</svg>
