<svg width="24" height="24" viewBox="0 0 24 24" fill="none" xmlns="http://www.w3.org/2000/svg">
  <path d="M9.75 4.25A4 4 0 0 0 7 5.25l2.8 2.8-3.7 3.7L3.3 9c-.57 1.66-.2 3.55 1.1 4.85l5.72 5.72a2 2 0 0 0 2.83 0l2.2-2.2a2 2 0 0 0 0-2.83l-1.72-1.72 3.7-3.7 2.8 2.8c.99-1.57 1-3.6.02-5.19l-3.02 3.02-4.24-4.24L14.06 3.4A4.02 4.02 0 0 0 9.75 4.25Z" fill="#C8A74E" fill-opacity="0.16"/>
  <path d="M6.1 12.15 13.6 4.65l4.24 4.24-7.5 7.5" stroke="#C8A74E" stroke-width="1.5" stroke-linecap="round" stroke-linejoin="round"/>
</svg>
