<svg width="22" height="22" viewBox="0 0 22 22" fill="none" xmlns="http://www.w3.org/2000/svg">
<path d="M19.3271 10.5419V14.9345C19.3271 17.57 17.5701 19.327 14.9346 19.327H6.14953C3.51401 19.327 1.757 17.57 1.757 14.9345V10.5419C1.757 8.1524 3.19775 6.48324 5.43794 6.20212C5.66635 6.16698 5.90355 6.14941 6.14953 6.14941H14.9346C15.163 6.14941 15.3826 6.15819 15.5935 6.19333C17.86 6.45688 19.3271 8.13483 19.3271 10.5419Z" stroke="#9DB2CE" stroke-width="1.31776" stroke-linecap="round" stroke-linejoin="round"/>
<path d="M15.5947 6.19353C15.3839 6.15839 15.1642 6.14961 14.9358 6.14961H6.15077C5.90479 6.14961 5.66759 6.16718 5.43918 6.20232C5.56217 5.95634 5.73787 5.72793 5.94871 5.51709L8.80385 2.65315C10.0074 1.45839 11.9577 1.45839 13.1612 2.65315L14.6986 4.20813C15.2609 4.76158 15.5596 5.46437 15.5947 6.19353Z" stroke="#9DB2CE" stroke-width="1.31776" stroke-linecap="round" stroke-linejoin="round"/>
<path d="M19.3271 10.9812H16.6916C15.7252 10.9812 14.9346 11.7719 14.9346 12.7382C14.9346 13.7046 15.7252 14.4952 16.6916 14.4952H19.3271" stroke="#9DB2CE" stroke-width="1.31776" stroke-linecap="round" stroke-linejoin="round"/>
</svg>
