<svg width="350" height="261" viewBox="0 0 350 261" fill="none" xmlns="http://www.w3.org/2000/svg">
    <path d="M350 229.18H0V229.355H350V229.18Z" fill="#EBEBEB"/>
    <path d="M314.93 240.443H291.746V240.618H314.93V240.443Z" fill="#EBEBEB"/>
    <path d="M231.854 242.347H225.771V242.522H231.854V242.347Z" fill="#EBEBEB"/>
    <path d="M291.046 233.947H277.613V234.122H291.046V233.947Z" fill="#EBEBEB"/>
    <path d="M66.955 235.123H36.722V235.298H66.955V235.123Z" fill="#EBEBEB"/>
    <path d="M77.623 235.123H73.192V235.298H77.623V235.123Z" fill="#EBEBEB"/>
    <path d="M157.605 238.077H92.029V238.252H157.605V238.077Z" fill="#EBEBEB"/>
    <path d="M165.9 197.96H30.737C29.6782 197.958 28.6633 197.536 27.9152 196.787C27.1672 196.037 26.747 195.022 26.747 193.963V3.962C26.7562 2.90922 27.1804 1.90259 27.9275 1.16075C28.6746 0.418921 29.6842 0.00180347 30.737 0H165.9C166.96 0 167.977 0.421111 168.726 1.17069C169.476 1.92028 169.897 2.93693 169.897 3.997V193.963C169.897 195.023 169.476 196.04 168.726 196.789C167.977 197.539 166.96 197.96 165.9 197.96ZM30.737 0.140001C29.7246 0.141855 28.7542 0.545346 28.039 1.26191C27.3237 1.97847 26.922 2.94955 26.922 3.962V193.963C26.922 194.975 27.3237 195.947 28.039 196.663C28.7542 197.38 29.7246 197.783 30.737 197.785H165.9C166.913 197.783 167.884 197.38 168.601 196.664C169.317 195.947 169.72 194.976 169.722 193.963V3.962C169.72 2.94891 169.317 1.97784 168.601 1.26148C167.884 0.545118 166.913 0.141851 165.9 0.140001H30.737Z" fill="#EBEBEB"/>
    <path d="M317.317 197.96H182.147C181.088 197.958 180.072 197.536 179.323 196.787C178.574 196.038 178.152 195.022 178.15 193.963V3.962C178.161 2.90858 178.587 1.90195 179.335 1.16031C180.083 0.418676 181.094 0.0017838 182.147 0H317.317C318.369 0.00364315 319.376 0.421574 320.122 1.16321C320.868 1.90484 321.291 2.91043 321.3 3.962V193.963C321.3 195.021 320.881 196.035 320.134 196.784C319.388 197.534 318.375 197.956 317.317 197.96ZM182.147 0.140001C181.134 0.141851 180.163 0.545118 179.447 1.26148C178.73 1.97784 178.327 2.94891 178.325 3.962V193.963C178.327 194.976 178.73 195.947 179.447 196.664C180.163 197.38 181.134 197.783 182.147 197.785H317.317C318.33 197.783 319.301 197.38 320.018 196.664C320.734 195.947 321.137 194.976 321.139 193.963V3.962C321.137 2.94891 320.734 1.97784 320.018 1.26148C319.301 0.545118 318.33 0.141851 317.317 0.140001H182.147Z" fill="#EBEBEB"/>
    <path d="M202.783 83.3418L299.229 83.3418V20.1808L202.783 20.1808V83.3418Z" fill="#E6E6E6"/>
    <path d="M199.836 83.3418L297.85 83.3418V20.1808L199.836 20.1808V83.3418Z" fill="#F0F0F0"/>
    <path d="M202.783 95.7319L299.229 95.7319V83.3349L202.783 83.3349V95.7319Z" fill="#E6E6E6"/>
    <path d="M194.943 95.7319L292.957 95.7319V83.3349L194.943 83.3349V95.7319Z" fill="#F0F0F0"/>
    <path d="M293.734 79.2262V24.3042L203.959 24.3042V79.2262H293.734Z" fill="#FAFAFA"/>
    <path d="M273.49 79.2192L262.024 24.3042H244.132L255.598 79.2192H273.49Z" fill="white"/>
    <path d="M291.83 75.124C291.869 75.124 291.908 75.1162 291.944 75.101C291.98 75.0858 292.013 75.0635 292.04 75.0354C292.068 75.0074 292.089 74.9742 292.104 74.9377C292.118 74.9012 292.125 74.8622 292.124 74.823V26.985C292.124 26.907 292.093 26.8323 292.038 26.7771C291.983 26.722 291.908 26.691 291.83 26.691C291.791 26.69 291.752 26.697 291.716 26.7114C291.68 26.7259 291.647 26.7475 291.62 26.775C291.592 26.8025 291.571 26.8353 291.556 26.8714C291.542 26.9075 291.535 26.9461 291.536 26.985V74.823C291.535 74.8622 291.542 74.9012 291.556 74.9377C291.571 74.9742 291.592 75.0074 291.62 75.0354C291.647 75.0635 291.68 75.0858 291.716 75.101C291.752 75.1162 291.791 75.124 291.83 75.124Z" fill="#F0F0F0"/>
    <path d="M251.755 79.2192L240.289 24.3042H233.31L244.783 79.2192H251.755Z" fill="white"/>
    <path d="M204.484 79.2262V24.3042H203.959V79.2262H204.484Z" fill="#E6E6E6"/>
    <path opacity="0.6" d="M198.87 30.5129H295.316L295.694 25.8999H199.248L198.87 30.5129Z" fill="#EBEBEB"/>
    <path opacity="0.6" d="M198.87 38.0728H295.316L295.694 33.4668H199.248L198.87 38.0728Z" fill="#EBEBEB"/>
    <path opacity="0.6" d="M198.87 45.6329H295.316L295.694 41.0269H199.248L198.87 45.6329Z" fill="#EBEBEB"/>
    <path opacity="0.6" d="M198.87 53.1999H295.316L295.694 48.5869H199.248L198.87 53.1999Z" fill="#EBEBEB"/>
    <path opacity="0.6" d="M198.87 60.76H295.316L295.694 56.147H199.248L198.87 60.76Z" fill="#EBEBEB"/>
    <path opacity="0.6" d="M198.87 68.32H295.316L295.694 63.707H199.248L198.87 68.32Z" fill="#EBEBEB"/>
    <path d="M285.383 183.246H265.16V187.236H285.383V183.246Z" fill="#E6E6E6"/>
    <path d="M227.017 229.18H230.748V137.431H227.017V229.18Z" fill="#E6E6E6"/>
    <path d="M214.081 187.236H265.153V183.246H214.081V187.236Z" fill="#F5F5F5"/>
    <path d="M285.383 205.065H265.16V209.055H285.383V205.065Z" fill="#E6E6E6"/>
    <path d="M214.081 209.048H265.153V205.058H214.081V209.048Z" fill="#F5F5F5"/>
    <path d="M285.383 139.615H265.16V143.605H285.383V139.615Z" fill="#E6E6E6"/>
    <path d="M214.081 143.598H265.153V139.608H214.081V143.598Z" fill="#F5F5F5"/>
    <path d="M285.383 161.427H265.16V165.417H285.383V161.427Z" fill="#E6E6E6"/>
    <path d="M214.081 165.417H265.153V161.427H214.081V165.417Z" fill="#F5F5F5"/>
    <path d="M278.096 229.18H281.827V137.431H278.096V229.18Z" fill="#E6E6E6"/>
    <path d="M261.422 229.18H265.153V137.431H261.422V229.18Z" fill="#F5F5F5"/>
    <path d="M214.081 229.18H217.812V137.431H214.081V229.18Z" fill="#F5F5F5"/>
    <path d="M45.766 229.18H83.972L83.972 155.057H45.766L45.766 229.18Z" fill="#E6E6E6"/>
    <path d="M55.965 229.18H45.759V218.946H66.661L55.965 229.18Z" fill="#FAFAFA"/>
    <path d="M149.926 229.18H188.132V155.057H149.926V229.18Z" fill="#E6E6E6"/>
    <path d="M45.766 225.652H158.837V155.05H45.766L45.766 225.652Z" fill="#FAFAFA"/>
    <path d="M148.631 229.18H158.83V218.946H137.935L148.631 229.18Z" fill="#FAFAFA"/>
    <path d="M53.676 199.031H150.92V181.363H53.676V199.031Z" fill="#F0F0F0"/>
    <path d="M53.676 220.472H150.92V202.804H53.676V220.472Z" fill="#F0F0F0"/>
    <path d="M132.44 183.253H72.163C71.3128 183.253 70.4973 182.915 69.8961 182.314C69.2948 181.713 68.957 180.897 68.957 180.047V179.83H135.639V180.047C135.639 180.896 135.302 181.71 134.702 182.311C134.103 182.912 133.289 183.251 132.44 183.253Z" fill="#FAFAFA"/>
    <path d="M53.676 177.583H150.92V159.915H53.676V177.583Z" fill="#F0F0F0"/>
    <path d="M132.44 161.805H72.163C71.3128 161.805 70.4973 161.467 69.8961 160.866C69.2948 160.265 68.957 159.449 68.957 158.599V158.382H135.639V158.599C135.639 159.448 135.302 160.263 134.702 160.864C134.103 161.465 133.289 161.803 132.44 161.805Z" fill="#FAFAFA"/>
    <path d="M132.44 204.701H72.163C71.3128 204.701 70.4973 204.363 69.8961 203.762C69.2948 203.161 68.957 202.345 68.957 201.495V201.278H135.639V201.495C135.639 202.344 135.302 203.159 134.702 203.76C134.103 204.361 133.289 204.699 132.44 204.701Z" fill="#FAFAFA"/>
    <path d="M51.849 83.3418L148.295 83.3418V20.1808L51.849 20.1808L51.849 83.3418Z" fill="#E6E6E6"/>
    <path d="M48.909 83.3418L146.923 83.3418V20.1808L48.909 20.1808L48.909 83.3418Z" fill="#F0F0F0"/>
    <path d="M51.849 95.7319L148.295 95.7319V83.3349L51.849 83.3349V95.7319Z" fill="#E6E6E6"/>
    <path d="M44.002 95.7319L142.016 95.7319V83.3349L44.002 83.3349V95.7319Z" fill="#F0F0F0"/>
    <path d="M142.8 79.2262V24.3042L53.025 24.3042V79.2262H142.8Z" fill="#FAFAFA"/>
    <path d="M122.556 79.2192L111.09 24.3042H93.198L104.664 79.2192H122.556Z" fill="white"/>
    <path d="M140.889 75.124C140.928 75.124 140.967 75.1162 141.003 75.101C141.039 75.0858 141.072 75.0635 141.099 75.0354C141.127 75.0074 141.148 74.9742 141.163 74.9377C141.177 74.9012 141.184 74.8622 141.183 74.823V26.985C141.184 26.9461 141.177 26.9075 141.163 26.8714C141.148 26.8353 141.127 26.8025 141.099 26.775C141.072 26.7475 141.039 26.7259 141.003 26.7114C140.967 26.697 140.928 26.69 140.889 26.691C140.811 26.691 140.736 26.722 140.681 26.7771C140.626 26.8323 140.595 26.907 140.595 26.985V74.823C140.594 74.8622 140.601 74.9012 140.615 74.9377C140.63 74.9742 140.651 75.0074 140.679 75.0354C140.706 75.0635 140.739 75.0858 140.775 75.101C140.811 75.1162 140.85 75.124 140.889 75.124Z" fill="#F0F0F0"/>
    <path d="M100.821 79.2192L89.355 24.3042H82.376L93.842 79.2192H100.821Z" fill="white"/>
    <path d="M53.55 79.2262V24.3042H53.025V79.2262H53.55Z" fill="#E6E6E6"/>
    <path opacity="0.6" d="M47.929 30.5129H144.375L144.753 25.8999H48.307L47.929 30.5129Z" fill="#EBEBEB"/>
    <path opacity="0.6" d="M47.929 33.1169H144.375L144.753 28.5039H48.307L47.929 33.1169Z" fill="#EBEBEB"/>
    <path opacity="0.6" d="M47.929 35.7139H144.375L144.753 31.1079H48.307L47.929 35.7139Z" fill="#EBEBEB"/>
    <path opacity="0.6" d="M47.929 38.3181H144.375L144.753 33.7051H48.307L47.929 38.3181Z" fill="#EBEBEB"/>
    <path opacity="0.6" d="M47.929 40.9151H144.375L144.753 36.3091H48.307L47.929 40.9151Z" fill="#EBEBEB"/>
    <path opacity="0.6" d="M47.929 43.5188H144.375L144.753 38.9058H48.307L47.929 43.5188Z" fill="#EBEBEB"/>
    <path d="M67.214 152.789H70.546V115.626H67.214V152.789Z" fill="#F5F5F5"/>
    <path d="M67.634 152.768H68.579V115.605H67.634V152.768Z" fill="#FAFAFA"/>
    <path d="M68.971 152.768H69.342V115.605H68.971V152.768Z" fill="#FAFAFA"/>
    <path d="M81.221 155.057H56.553C56.553 154.233 56.8805 153.442 57.4633 152.859C58.0462 152.277 58.8367 151.949 59.661 151.949H78.106C78.9303 151.949 79.7208 152.277 80.3037 152.859C80.8866 153.442 81.214 154.233 81.214 155.057H81.221Z" fill="#F0F0F0"/>
    <path d="M62.888 138.698C63.1418 138.696 63.3846 138.594 63.5641 138.415C63.7435 138.236 63.8452 137.993 63.847 137.739V113.4C63.847 113.146 63.746 112.902 63.5661 112.722C63.3863 112.542 63.1423 112.441 62.888 112.441C62.7615 112.44 62.636 112.464 62.5189 112.512C62.4017 112.56 62.2951 112.63 62.2054 112.719C62.1156 112.808 62.0443 112.915 61.9957 113.031C61.947 113.148 61.922 113.273 61.922 113.4V137.767C61.9311 138.017 62.0368 138.254 62.217 138.427C62.3972 138.601 62.6377 138.698 62.888 138.698Z" fill="#F0F0F0"/>
    <path d="M53.949 124.46H83.804L80.367 103.6H57.386L53.949 124.46Z" fill="#E0E0E0"/>
    <path d="M175 260.792C249.958 260.792 310.723 257.245 310.723 252.868C310.723 248.492 249.958 244.944 175 244.944C100.042 244.944 39.277 248.492 39.277 252.868C39.277 257.245 100.042 260.792 175 260.792Z" fill="#F5F5F5"/>
    <path d="M72.883 103.151L72.1848 103.202L73.1147 116.111L73.8129 116.061L72.883 103.151Z" fill="#C8A74E"/>
    <path d="M74.2873 122.725L73.5891 122.775L73.9391 127.635L74.6373 127.585L74.2873 122.725Z" fill="#C8A74E"/>
    <path d="M236.397 182.112H86.485C84.8162 182.082 83.2177 181.435 81.9975 180.297C80.7774 179.158 80.022 177.608 79.877 175.945L72.5129 73.6541C72.4445 72.8652 72.542 72.0707 72.7992 71.3218C73.0564 70.5729 73.4677 69.8862 74.0064 69.3059C74.5452 68.7255 75.1995 68.2645 75.9273 67.9525C76.6551 67.6404 77.4402 67.4843 78.232 67.4941H228.144C229.812 67.5239 231.409 68.1697 232.629 69.3069C233.849 70.4442 234.605 71.9927 234.752 73.6541L242.116 175.945C242.184 176.734 242.087 177.529 241.83 178.278C241.573 179.028 241.161 179.715 240.623 180.296C240.084 180.876 239.43 181.338 238.702 181.651C237.974 181.964 237.189 182.121 236.397 182.112Z" fill="#C8A74E"/>
    <path d="M236.971 182.112H87.059C85.3903 182.082 83.7917 181.435 82.5716 180.297C81.3514 179.158 80.596 177.608 80.451 175.945L73.087 73.6541C73.0185 72.8652 73.116 72.0707 73.3732 71.3218C73.6305 70.5729 74.0417 69.8862 74.5805 69.3059C75.1192 68.7255 75.7736 68.2645 76.5013 67.9525C77.2291 67.6404 78.0142 67.4843 78.806 67.4941H228.718C230.386 67.5239 231.983 68.1697 233.203 69.3069C234.423 70.4442 235.179 71.9927 235.326 73.6541L242.69 175.945C242.76 176.735 242.663 177.53 242.406 178.28C242.149 179.029 241.738 179.717 241.199 180.298C240.66 180.879 240.006 181.341 239.277 181.653C238.549 181.966 237.763 182.122 236.971 182.112Z" fill="#C8A74E"/>
    <path opacity="0.5" d="M236.971 182.112H87.059C85.3903 182.082 83.7917 181.435 82.5716 180.297C81.3514 179.158 80.596 177.608 80.451 175.945L73.087 73.6541C73.0185 72.8652 73.116 72.0707 73.3732 71.3218C73.6305 70.5729 74.0417 69.8862 74.5805 69.3059C75.1192 68.7255 75.7736 68.2645 76.5013 67.9525C77.2291 67.6404 78.0142 67.4843 78.806 67.4941H228.718C230.386 67.5239 231.983 68.1697 233.203 69.3069C234.423 70.4442 235.179 71.9927 235.326 73.6541L242.69 175.945C242.76 176.735 242.663 177.53 242.406 178.28C242.149 179.029 241.738 179.717 241.199 180.298C240.66 180.879 240.006 181.341 239.277 181.653C238.549 181.966 237.763 182.122 236.971 182.112Z" fill="white"/>
    <path d="M228.942 70.5742H79.03H78.526C74.697 70.8892 75.481 76.7202 79.345 76.7202H229.509C233.38 76.7202 233.324 70.8892 229.446 70.5742H228.942Z" fill="#C8A74E"/>
    <path d="M82.936 73.654C82.9507 73.8345 82.9274 74.016 82.8676 74.1869C82.8078 74.3578 82.7128 74.5143 82.5888 74.6462C82.4648 74.7782 82.3145 74.8826 82.1476 74.9529C81.9808 75.0231 81.801 75.0576 81.62 75.054C81.2395 75.0487 80.8745 74.9027 80.5953 74.6442C80.3161 74.3857 80.1425 74.033 80.108 73.654C80.0933 73.4742 80.1164 73.2932 80.1758 73.1228C80.2352 72.9524 80.3295 72.7963 80.4528 72.6645C80.576 72.5326 80.7255 72.428 80.8915 72.3574C81.0575 72.2867 81.2365 72.2515 81.417 72.254C81.7986 72.2577 82.1654 72.4029 82.446 72.6616C82.7267 72.9202 82.9013 73.2739 82.936 73.654Z" fill="#FAFAFA"/>
    <path d="M87.745 73.654C87.7597 73.8345 87.7364 74.016 87.6766 74.1869C87.6168 74.3578 87.5219 74.5143 87.3979 74.6462C87.2738 74.7782 87.1235 74.8826 86.9567 74.9529C86.7898 75.0231 86.61 75.0576 86.429 75.054C86.0485 75.0487 85.6835 74.9027 85.4043 74.6442C85.1252 74.3857 84.9515 74.033 84.917 73.654C84.9023 73.4742 84.9254 73.2932 84.9848 73.1228C85.0442 72.9524 85.1385 72.7963 85.2618 72.6645C85.385 72.5326 85.5345 72.428 85.7005 72.3574C85.8666 72.2867 86.0456 72.2515 86.226 72.254C86.6077 72.2577 86.9744 72.4029 87.2551 72.6616C87.5357 72.9202 87.7103 73.2739 87.745 73.654Z" fill="#FAFAFA"/>
    <path d="M92.547 73.6542C92.5616 73.834 92.5385 74.015 92.4791 74.1854C92.4198 74.3558 92.3254 74.5119 92.2022 74.6437C92.0789 74.7756 91.9295 74.8802 91.7634 74.9508C91.5974 75.0215 91.4184 75.0567 91.238 75.0542C90.8571 75.0504 90.4912 74.9049 90.2117 74.6461C89.9322 74.3873 89.759 74.0337 89.726 73.6542C89.7102 73.4741 89.7325 73.2927 89.7915 73.1218C89.8505 72.9509 89.9448 72.7943 90.0683 72.6622C90.1917 72.5302 90.3416 72.4256 90.5082 72.3553C90.6747 72.285 90.8542 72.2505 91.035 72.2542C91.4154 72.2595 91.7804 72.4055 92.0596 72.664C92.3388 72.9225 92.5124 73.2752 92.547 73.6542Z" fill="#FAFAFA"/>
    <path d="M232.995 171.906H89.6C88.9942 171.896 88.4138 171.661 87.9714 171.247C87.5291 170.833 87.2563 170.27 87.206 169.666L81.151 85.547C81.1241 85.2584 81.1588 84.9673 81.253 84.6931C81.3471 84.4189 81.4986 84.1679 81.6972 83.9567C81.8958 83.7455 82.137 83.579 82.4049 83.4682C82.6728 83.3574 82.9612 83.3048 83.251 83.314H226.681C227.286 83.3224 227.866 83.5556 228.309 83.9684C228.752 84.3812 229.025 84.9439 229.075 85.547L235.137 169.666C235.163 169.958 235.127 170.253 235.03 170.53C234.933 170.807 234.778 171.06 234.575 171.272C234.372 171.485 234.126 171.651 233.853 171.76C233.581 171.869 233.288 171.919 232.995 171.906Z" fill="white"/>
    <path d="M172.571 139.86L170.233 107.436L163.163 103.18H143.696L146.342 139.86H172.571Z" fill="white"/>
    <path d="M172.571 140.196H146.342C146.255 140.198 146.171 140.166 146.107 140.107C146.043 140.049 146.004 139.968 145.999 139.881L143.36 103.201C143.357 103.155 143.363 103.109 143.379 103.065C143.394 103.022 143.419 102.982 143.451 102.949C143.482 102.914 143.52 102.887 143.562 102.867C143.604 102.848 143.65 102.838 143.696 102.837H163.163C163.224 102.839 163.284 102.856 163.338 102.886L170.408 107.142C170.456 107.169 170.496 107.208 170.525 107.254C170.554 107.3 170.572 107.353 170.576 107.408L172.9 139.832C172.905 139.879 172.899 139.927 172.883 139.972C172.868 140.016 172.842 140.057 172.809 140.091C172.779 140.124 172.742 140.15 172.701 140.168C172.66 140.186 172.616 140.196 172.571 140.196ZM146.671 139.496H172.2L169.904 107.611L163.1 103.516H144.06L146.671 139.496Z" fill="#C8A74E"/>
    <path d="M170.233 107.436L163.163 103.18L165.76 108.822L170.233 107.436Z" fill="#EBEBEB"/>
    <path d="M165.76 109.158C165.695 109.158 165.632 109.139 165.578 109.104C165.523 109.07 165.48 109.02 165.452 108.962L162.855 103.32C162.825 103.254 162.816 103.18 162.83 103.108C162.843 103.037 162.879 102.971 162.932 102.921C162.987 102.873 163.056 102.844 163.129 102.838C163.202 102.832 163.275 102.849 163.338 102.886L170.408 107.142C170.465 107.176 170.511 107.226 170.541 107.285C170.571 107.345 170.583 107.412 170.576 107.478C170.567 107.542 170.54 107.603 170.498 107.652C170.455 107.702 170.4 107.739 170.338 107.758L165.858 109.158H165.76ZM163.933 104.034L165.942 108.409L169.442 107.338L163.933 104.034Z" fill="#C8A74E"/>
    <path d="M154.7 119.7C154.71 119.89 154.682 120.081 154.616 120.26C154.551 120.438 154.449 120.602 154.318 120.74C154.187 120.879 154.029 120.989 153.854 121.064C153.679 121.139 153.49 121.177 153.3 121.177C152.9 121.17 152.518 121.015 152.225 120.742C151.933 120.47 151.753 120.098 151.718 119.7C151.7 119.508 151.723 119.314 151.786 119.132C151.849 118.949 151.95 118.782 152.082 118.641C152.215 118.501 152.376 118.39 152.554 118.317C152.733 118.244 152.925 118.209 153.118 118.216C153.518 118.225 153.901 118.381 154.193 118.655C154.485 118.929 154.666 119.301 154.7 119.7Z" fill="#C8A74E"/>
    <path d="M164.29 119.7C164.307 119.892 164.283 120.085 164.22 120.267C164.156 120.448 164.055 120.615 163.923 120.754C163.791 120.894 163.63 121.004 163.452 121.077C163.274 121.15 163.082 121.184 162.89 121.177C162.49 121.17 162.106 121.016 161.813 120.743C161.519 120.47 161.337 120.099 161.301 119.7C161.29 119.51 161.317 119.318 161.382 119.139C161.448 118.959 161.549 118.795 161.68 118.656C161.811 118.517 161.97 118.406 162.145 118.33C162.321 118.255 162.51 118.216 162.701 118.216C163.103 118.222 163.488 118.377 163.782 118.651C164.076 118.926 164.257 119.3 164.29 119.7Z" fill="#C8A74E"/>
    <path d="M167.006 129.318C166.921 129.317 166.839 129.284 166.777 129.225C166.715 129.167 166.677 129.088 166.67 129.003C166.495 126.616 162.757 124.677 158.34 124.677C155.407 124.677 152.775 125.552 151.473 126.952C151.206 127.21 150.996 127.522 150.858 127.867C150.721 128.212 150.658 128.583 150.675 128.954C150.678 129 150.672 129.046 150.658 129.09C150.643 129.134 150.62 129.174 150.59 129.209C150.529 129.279 150.442 129.322 150.35 129.329C150.257 129.335 150.165 129.304 150.095 129.243C150.025 129.182 149.982 129.096 149.975 129.003C149.954 128.539 150.031 128.076 150.199 127.643C150.368 127.21 150.626 126.817 150.955 126.49C152.355 124.957 155.204 123.998 158.319 123.998C163.17 123.998 167.125 126.175 167.321 128.954C167.324 128.998 167.318 129.042 167.304 129.084C167.289 129.126 167.267 129.165 167.238 129.198C167.208 129.231 167.173 129.258 167.133 129.278C167.093 129.297 167.05 129.308 167.006 129.311V129.318Z" fill="#C8A74E"/>
    <path d="M149.219 116.704C149.134 116.702 149.052 116.67 148.988 116.613C148.924 116.549 148.889 116.462 148.889 116.372C148.889 116.281 148.924 116.194 148.988 116.13L150.479 114.527C150.543 114.466 150.628 114.431 150.717 114.431C150.806 114.431 150.891 114.466 150.955 114.527C150.986 114.558 151.011 114.595 151.028 114.636C151.045 114.677 151.054 114.721 151.054 114.765C151.054 114.809 151.045 114.853 151.028 114.894C151.011 114.935 150.986 114.972 150.955 115.003L149.464 116.606C149.432 116.638 149.394 116.663 149.352 116.68C149.309 116.697 149.264 116.705 149.219 116.704Z" fill="#C8A74E"/>
    <path d="M166.306 116.704C166.221 116.7 166.14 116.668 166.075 116.613L164.36 115.01C164.328 114.979 164.302 114.941 164.284 114.9C164.267 114.858 164.258 114.814 164.258 114.769C164.258 114.724 164.267 114.679 164.284 114.638C164.302 114.596 164.328 114.558 164.36 114.527C164.424 114.466 164.509 114.431 164.598 114.431C164.687 114.431 164.772 114.466 164.836 114.527L166.551 116.13C166.582 116.161 166.607 116.198 166.624 116.239C166.641 116.28 166.65 116.324 166.65 116.368C166.65 116.412 166.641 116.456 166.624 116.497C166.607 116.538 166.582 116.575 166.551 116.606C166.484 116.668 166.397 116.703 166.306 116.704Z" fill="#C8A74E"/>
    <path d="M141.582 147.105H143.164L145.446 150.143L145.229 147.105H146.825L147.217 152.593H145.6L143.332 149.576L143.549 152.593H141.953L141.582 147.105Z" fill="#C8A74E"/>
    <path d="M147.931 149.849C147.877 149.476 147.903 149.096 148.006 148.734C148.11 148.372 148.29 148.037 148.533 147.749C148.799 147.488 149.117 147.285 149.467 147.156C149.817 147.027 150.191 146.974 150.563 147C151.352 146.957 152.127 147.221 152.726 147.735C153.275 148.282 153.593 149.019 153.615 149.793C153.673 150.327 153.601 150.868 153.405 151.368C153.224 151.771 152.92 152.107 152.537 152.327C152.077 152.574 151.56 152.692 151.039 152.67C150.503 152.687 149.971 152.587 149.478 152.376C149.046 152.169 148.682 151.844 148.428 151.438C148.128 150.96 147.956 150.413 147.931 149.849ZM149.632 149.849C149.625 150.279 149.763 150.698 150.024 151.039C150.133 151.16 150.268 151.255 150.418 151.317C150.568 151.38 150.729 151.41 150.892 151.403C151.047 151.414 151.203 151.387 151.345 151.325C151.488 151.263 151.613 151.167 151.711 151.046C151.912 150.664 151.979 150.225 151.9 149.8C151.903 149.388 151.765 148.988 151.508 148.666C151.396 148.548 151.26 148.455 151.109 148.393C150.958 148.332 150.796 148.303 150.633 148.309C150.481 148.303 150.329 148.332 150.19 148.395C150.052 148.459 149.93 148.554 149.835 148.673C149.63 149.034 149.558 149.455 149.632 149.863V149.849Z" fill="#C8A74E"/>
    <path d="M156.905 147.105H159.425C159.84 147.092 160.254 147.161 160.643 147.308C160.951 147.437 161.224 147.636 161.441 147.889C161.661 148.146 161.83 148.443 161.938 148.764C162.052 149.109 162.122 149.466 162.148 149.828C162.202 150.286 162.166 150.749 162.043 151.193C161.947 151.5 161.776 151.779 161.546 152.005C161.354 152.208 161.113 152.358 160.846 152.439C160.52 152.533 160.184 152.585 159.845 152.593H157.332L156.905 147.105ZM158.69 148.351L158.907 151.347H159.32C159.575 151.364 159.831 151.323 160.069 151.228C160.226 151.137 160.341 150.989 160.391 150.815C160.471 150.504 160.49 150.181 160.447 149.863C160.46 149.436 160.33 149.017 160.076 148.673C159.946 148.556 159.793 148.466 159.627 148.411C159.461 148.355 159.285 148.335 159.11 148.351H158.69Z" fill="#C8A74E"/>
    <path d="M166.215 151.683H164.29L164.087 152.593H162.358L164.024 147.105H165.9L168.357 152.593H166.579L166.215 151.683ZM165.774 150.5L165.032 148.526L164.57 150.5H165.774Z" fill="#C8A74E"/>
    <path d="M167.559 147.105H172.711L172.809 148.463H171.08L171.374 152.593H169.68L169.386 148.463H167.657L167.559 147.105Z" fill="#C8A74E"/>
    <path d="M176.659 151.683H174.734L174.531 152.593H172.802L174.468 147.105H176.316L178.766 152.593H176.995L176.659 151.683ZM176.218 150.5L175.469 148.526L175 150.5H176.218Z" fill="#C8A74E"/>
    <path d="M247.583 82.6559C248.206 82.3409 248.983 81.9559 249.641 81.5569C250.299 81.1579 251.041 80.7729 251.741 80.3529C253.106 79.5059 254.492 78.6729 255.801 77.7489C258.43 75.95 260.894 73.9213 263.165 71.6869C263.452 71.4209 263.704 71.1269 263.977 70.8399L264.376 70.4129L264.572 70.2029L264.67 70.0909C264.572 70.2799 264.67 70.2239 264.67 70.0419C264.731 69.7919 264.767 69.5362 264.775 69.2789C264.759 67.7904 264.587 66.3078 264.264 64.8549C263.641 61.7189 262.696 58.4849 261.765 55.3209L264.481 54.1309C266.195 57.1665 267.627 60.3532 268.758 63.6509C269.393 65.4329 269.798 67.289 269.962 69.1739C270.005 69.7599 269.986 70.3488 269.906 70.9309C269.802 71.754 269.51 72.542 269.052 73.2339L268.933 73.3949L268.842 73.5069L268.737 73.6399L268.52 73.9059L268.086 74.4309C267.799 74.7739 267.519 75.1309 267.211 75.4599C264.817 78.1163 262.146 80.5098 259.245 82.5999C257.845 83.6359 256.361 84.6299 254.842 85.5329C254.093 85.9879 253.33 86.4219 252.553 86.8489C251.776 87.2759 251.02 87.6679 250.124 88.0879L247.583 82.6559Z" fill="#FFB573"/>
    <path d="M241.353 247.226C241.877 247.212 242.398 247.142 242.907 247.016C242.933 247.008 242.956 246.993 242.974 246.974C242.993 246.954 243.006 246.93 243.012 246.904C243.015 246.877 243.011 246.849 243 246.825C242.989 246.8 242.971 246.779 242.949 246.764C242.746 246.631 240.968 245.483 240.282 245.791C240.206 245.826 240.141 245.881 240.093 245.95C240.045 246.019 240.016 246.099 240.009 246.183C239.982 246.315 239.989 246.451 240.029 246.58C240.069 246.709 240.142 246.825 240.24 246.918C240.562 247.151 240.957 247.261 241.353 247.226ZM242.508 246.82C241.493 247.023 240.723 246.988 240.408 246.715C240.345 246.65 240.299 246.571 240.275 246.484C240.25 246.397 240.248 246.305 240.268 246.218C240.271 246.18 240.283 246.145 240.304 246.114C240.325 246.083 240.353 246.059 240.387 246.043C240.758 245.882 241.787 246.4 242.508 246.82Z" fill="#C8A74E"/>
    <path d="M242.9 247.016H242.97C242.99 247.003 243.008 246.986 243.02 246.965C243.032 246.944 243.039 246.921 243.04 246.897C243.04 246.82 243.04 245.133 242.396 244.573C242.319 244.499 242.226 244.443 242.124 244.41C242.022 244.377 241.914 244.368 241.808 244.384C241.698 244.385 241.591 244.424 241.505 244.494C241.42 244.564 241.361 244.661 241.339 244.769C241.206 245.469 242.27 246.694 242.83 247.016C242.853 247.023 242.877 247.023 242.9 247.016ZM241.899 244.643C242.013 244.643 242.122 244.686 242.207 244.762C242.576 245.306 242.767 245.952 242.753 246.61C242.193 246.162 241.528 245.21 241.612 244.811C241.612 244.748 241.661 244.664 241.836 244.643H241.899Z" fill="#C8A74E"/>
    <path d="M242.354 65.1489C241.654 68.6489 240.254 75.6489 242.669 77.9939C242.669 77.9939 241.717 81.4939 235.256 81.4939C228.144 81.4939 231.861 77.9939 231.861 77.9939C235.739 77.0699 235.634 74.1929 234.962 71.4839L242.354 65.1489Z" fill="#FFB573"/>
    <path d="M230.496 79.3938C229.383 79.5478 230.335 76.6568 230.783 76.3558C231.833 75.6558 245.385 74.6828 245.294 76.3558C245.238 77.0558 244.902 78.4558 244.314 78.9178C243.726 79.3798 240.24 77.9378 230.496 79.3938Z" fill="#263238"/>
    <path d="M232.708 78.3998C231.819 78.7008 231.903 75.7888 232.204 75.4388C232.904 74.6268 243.873 71.8128 244.195 73.4018C244.321 74.1018 244.384 75.5018 244.006 75.9988C243.628 76.4958 240.408 75.6768 232.708 78.3998Z" fill="#263238"/>
    <path d="M228.627 58.8769C228.583 58.8788 228.539 58.8703 228.499 58.8521C228.459 58.8338 228.423 58.8063 228.396 58.7719C228.182 58.4964 227.907 58.275 227.592 58.1255C227.277 57.9759 226.931 57.9024 226.583 57.9109C226.546 57.9158 226.509 57.9132 226.474 57.9035C226.439 57.8937 226.405 57.8768 226.377 57.8539C226.348 57.8311 226.324 57.8026 226.307 57.7703C226.289 57.738 226.278 57.7025 226.275 57.6659C226.269 57.5938 226.291 57.5222 226.337 57.4661C226.382 57.4099 226.448 57.3737 226.52 57.3649C226.961 57.3424 227.4 57.4268 227.801 57.6108C228.202 57.7949 228.553 58.0731 228.823 58.4219C228.87 58.4787 228.892 58.5517 228.886 58.6251C228.879 58.6984 228.844 58.7663 228.788 58.8139C228.74 58.848 228.685 58.8697 228.627 58.8769Z" fill="#263238"/>
    <path d="M227.269 62.2998C226.951 63.4165 226.48 64.4837 225.869 65.4708C226.126 65.6184 226.412 65.708 226.707 65.7334C227.002 65.7588 227.299 65.7194 227.577 65.6178L227.269 62.2998Z" fill="#FF5652"/>
    <path d="M227.612 61.4529C227.661 61.9219 227.444 62.3279 227.136 62.3559C226.828 62.3839 226.541 62.0339 226.499 61.5579C226.457 61.0819 226.667 60.6829 226.968 60.6549C227.269 60.6269 227.563 60.9769 227.612 61.4529Z" fill="#263238"/>
    <path d="M227.108 60.6687L225.946 60.4517C225.946 60.4517 226.611 61.2777 227.108 60.6687Z" fill="#263238"/>
    <path d="M249.69 246.883H243.824L244.286 233.303H250.152L249.69 246.883Z" fill="#FFB573"/>
    <path d="M243.362 246.204H249.949C250.063 246.201 250.173 246.24 250.26 246.314C250.346 246.387 250.402 246.49 250.418 246.603L251.167 251.811C251.182 251.942 251.169 252.076 251.128 252.202C251.088 252.328 251.021 252.444 250.932 252.543C250.844 252.642 250.735 252.72 250.614 252.774C250.493 252.827 250.361 252.855 250.229 252.854C247.933 252.819 246.827 252.679 243.929 252.679C242.144 252.679 239.54 252.868 237.083 252.868C234.626 252.868 234.486 250.432 235.515 250.215C240.107 249.221 240.835 247.863 242.382 246.561C242.657 246.332 243.004 246.206 243.362 246.204Z" fill="#263238"/>
    <g opacity="0.2">
        <path d="M250.152 233.303H244.286L244.048 240.303H249.914L250.152 233.303Z" fill="black"/>
    </g>
    <path d="M226.359 86.0999C222.77 84.7042 219.253 83.1272 215.824 81.3749C212.282 79.644 208.907 77.5889 205.744 75.2359C204.899 74.5738 204.099 73.8559 203.35 73.0869C203.154 72.8769 202.958 72.6809 202.769 72.4359C202.547 72.1855 202.341 71.9213 202.153 71.6449C201.637 70.8928 201.314 70.0247 201.215 69.1179C201.138 68.2582 201.255 67.3921 201.558 66.5839C201.801 65.9342 202.133 65.3216 202.545 64.7639C203.221 63.8392 204.019 63.0103 204.918 62.2999C206.504 61.0369 208.216 59.9414 210.028 59.0309C210.896 58.5689 211.778 58.1559 212.674 57.7709C213.57 57.3859 214.452 57.0219 215.411 56.6929L216.65 59.3879C213.598 61.3129 210.434 63.4339 208.11 65.7999C207.59 66.3269 207.132 66.9117 206.745 67.5429C206.409 68.0959 206.416 68.5089 206.472 68.4739C206.528 68.4389 206.472 68.4739 206.57 68.5439L206.85 68.8449C206.955 68.9709 207.102 69.0969 207.235 69.2299C207.828 69.7756 208.457 70.2807 209.118 70.7419C210.563 71.765 212.068 72.7 213.626 73.5419C215.201 74.4239 216.825 75.2569 218.477 76.0549C221.781 77.6369 225.197 79.1559 228.55 80.5419L226.359 86.0999Z" fill="#FFB573"/>
    <path d="M218.4 57.5049L219.366 55.4049L214.942 53.8999C214.942 53.8999 213.542 58.0369 215.201 59.9409C215.894 59.8317 216.55 59.552 217.108 59.1268C217.666 58.7016 218.11 58.1442 218.4 57.5049Z" fill="#FFB573"/>
    <path d="M219.345 50.8618L215.824 49.8398L214.942 53.8719L219.345 55.4048V50.8618Z" fill="#FFB573"/>
    <path d="M264.845 55.6075L265.356 50.7075L260.82 51.7995C260.82 51.7995 260.75 56.4055 263.151 57.1335L264.845 55.6075Z" fill="#FFB573"/>
    <path d="M263.172 47.2568L260.211 48.6358L260.82 51.7648L265.356 50.6938L263.172 47.2568Z" fill="#FFB573"/>
    <path d="M243.278 58.2747C243.495 64.0917 243.705 66.5487 241.08 69.8037C237.125 74.7037 229.936 73.6887 227.99 68.0537C226.24 62.9857 226.184 54.3267 231.616 51.4707C232.81 50.8357 234.147 50.5164 235.499 50.543C236.851 50.5697 238.175 50.9415 239.343 51.6231C240.511 52.3047 241.486 53.2735 242.174 54.4377C242.863 55.6018 243.243 56.9225 243.278 58.2747Z" fill="#FFB573"/>
    <path d="M240.744 69.7969C246.456 67.3259 250.208 62.0969 248.626 53.9909C247.107 46.2139 241.857 45.4439 239.687 47.0539C237.517 48.6639 232.106 46.2629 228.858 48.9929C223.258 53.7319 228.55 58.7929 231.322 61.8519C232.974 65.2539 235.144 72.2119 240.744 69.7969Z" fill="#263238"/>
    <path d="M238.371 52.5977C239.068 53.4916 240.011 54.1619 241.084 54.5258C242.158 54.8897 243.314 54.9313 244.411 54.6456C245.508 54.3598 246.497 53.7591 247.256 52.9177C248.015 52.0762 248.511 51.0309 248.683 49.9106C248.855 48.7904 248.696 47.6443 248.224 46.6139C247.752 45.5834 246.988 44.7137 246.028 44.1121C245.067 43.5105 243.952 43.2033 242.819 43.2285C241.686 43.2537 240.585 43.6101 239.652 44.2538C238.376 45.1907 237.524 46.5959 237.284 48.1606C237.044 49.7252 237.435 51.3212 238.371 52.5977Z" fill="#C8A74E"/>
    <path d="M239.855 47.5997C239.036 42.9097 243.467 39.2977 249.403 41.0407C255.339 42.7837 252.203 48.0407 250.978 52.2407C249.753 56.4407 252.959 60.4447 254.289 57.2457C255.619 54.0467 253.379 53.0457 253.379 53.0457C253.379 53.0457 259.679 54.6767 253.827 61.7817C247.975 68.8867 242.676 61.0397 244.111 56.4127C245.273 52.6957 240.632 52.0307 239.855 47.5997Z" fill="#263238"/>
    <path d="M233.926 49.3706C231.217 47.9706 226.632 46.8156 224.021 51.2116C222.789 53.3116 223.265 56.1116 223.265 56.1116L231.238 56.6366L233.926 49.3706Z" fill="#263238"/>
    <path d="M222.327 54.7256C222.28 54.722 222.236 54.7003 222.205 54.6651C222.173 54.6298 222.157 54.5837 222.159 54.5366C222.159 54.4176 222.362 51.6036 224.063 49.8396C228.172 45.5696 232.988 49.1396 234.36 50.2946C234.39 50.3258 234.407 50.3668 234.408 50.4098C234.409 50.4528 234.394 50.4947 234.367 50.5276C234.339 50.5605 234.3 50.582 234.258 50.5881C234.215 50.5942 234.172 50.5844 234.136 50.5606C232.813 49.4266 228.207 46.0316 224.336 50.0776C222.726 51.7506 222.53 54.5296 222.53 54.5576C222.529 54.5826 222.523 54.6071 222.512 54.6295C222.501 54.6519 222.486 54.6718 222.467 54.6877C222.447 54.7036 222.425 54.7152 222.401 54.7218C222.377 54.7283 222.352 54.7296 222.327 54.7256Z" fill="#263238"/>
    <path d="M232.295 61.5997C232.263 62.701 231.856 63.7583 231.14 64.5957C230.174 65.7297 229.04 65.1697 228.809 63.8957C228.578 62.7687 228.809 60.8157 230.027 60.1367C231.245 59.4577 232.309 60.3257 232.295 61.5997Z" fill="#FFB573"/>
    <path d="M231.035 114.884C231.035 114.884 231.413 155.589 234.941 178.269C237.797 196.588 243.068 238.952 243.068 238.952H251.069C251.069 238.952 251.846 198.051 250.369 179.935C246.708 134.085 256.165 125.51 248.535 114.884H231.035Z" fill="#263238"/>
    <path opacity="0.1" d="M231.035 114.884C231.035 114.884 231.413 155.589 234.941 178.269C237.797 196.588 243.068 238.952 243.068 238.952H251.069C251.069 238.952 251.846 198.051 250.369 179.935C246.708 134.085 256.165 125.51 248.535 114.884H231.035Z" fill="white"/>
    <path opacity="0.3" d="M235.242 133.35C238.042 145.635 235.809 164.983 234.276 173.502C232.652 160.566 231.833 143.801 231.427 131.502C232.876 129.164 234.248 129.01 235.242 133.35Z" fill="black"/>
    <path d="M241.976 239.106H252.161L252.693 235.536L241.92 235.172L241.976 239.106Z" fill="#C8A74E"/>
    <path d="M244.881 80.4998C245.84 78.5958 250.992 77.3988 253.806 77.4058L255.906 86.7578C255.906 86.7578 250.306 95.0808 247.968 94.1988C245.217 93.1838 242.83 84.6088 244.881 80.4998Z" fill="#C8A74E"/>
    <path d="M244.881 80.4998C245.84 78.5958 250.992 77.3988 253.806 77.4058L255.906 86.7578C255.906 86.7578 250.306 95.0808 247.968 94.1988C245.217 93.1838 242.83 84.6088 244.881 80.4998Z" fill="#F47960"/>
    <path d="M238.945 236.817C238.957 236.796 238.963 236.773 238.963 236.75C238.963 236.727 238.957 236.704 238.945 236.684C238.932 236.657 238.911 236.635 238.884 236.621C238.858 236.607 238.827 236.602 238.798 236.607C238.504 236.656 235.914 237.062 235.564 237.804C235.527 237.871 235.507 237.947 235.507 238.024C235.507 238.101 235.527 238.177 235.564 238.245C235.624 238.355 235.71 238.449 235.815 238.519C235.92 238.589 236.041 238.631 236.166 238.644C237.013 238.728 238.266 237.552 238.896 236.838L238.945 236.817ZM235.837 237.895C236.075 237.503 237.419 237.139 238.441 236.95C237.517 237.888 236.705 238.413 236.229 238.35C236.147 238.341 236.068 238.313 235.999 238.266C235.931 238.22 235.875 238.157 235.837 238.084C235.822 238.057 235.814 238.027 235.814 237.996C235.814 237.965 235.822 237.935 235.837 237.909C235.837 237.909 235.83 237.902 235.837 237.895Z" fill="#C8A74E"/>
    <path d="M238.945 236.817C238.957 236.796 238.963 236.773 238.963 236.75C238.963 236.727 238.957 236.704 238.945 236.684C238.903 236.635 237.867 235.438 236.908 235.375C236.77 235.363 236.631 235.38 236.499 235.425C236.368 235.469 236.247 235.54 236.145 235.634C235.858 235.893 235.886 236.117 235.956 236.257C236.257 236.859 238.119 237.069 238.868 236.908C238.887 236.9 238.904 236.888 238.918 236.872C238.931 236.856 238.941 236.837 238.945 236.817ZM236.208 235.935C236.239 235.887 236.276 235.845 236.32 235.809C236.393 235.739 236.48 235.686 236.576 235.654C236.671 235.621 236.773 235.609 236.873 235.62C237.524 235.78 238.109 236.14 238.546 236.649C237.713 236.719 236.369 236.467 236.187 236.103C236.175 236.075 236.171 236.045 236.175 236.016C236.178 235.986 236.19 235.958 236.208 235.935Z" fill="#C8A74E"/>
    <path d="M245.056 234.332L239.694 236.719L237.307 231.742L234.185 225.232L233.814 224.476L239.176 222.089L239.589 222.943L242.613 229.25L245.056 234.332Z" fill="#FFB573"/>
    <path opacity="0.2" d="M242.613 229.25L237.307 231.742L234.185 225.232L239.589 222.943L242.613 229.25Z" fill="black"/>
    <path d="M224.749 114.884C224.749 114.884 207.62 157.5 212.261 177.52C216.461 195.643 235.011 229.964 235.011 229.964L242.2 226.366C242.2 226.366 230.727 184.933 229.488 175.931C227.066 158.431 242.627 133.7 242.627 114.884H224.749Z" fill="#263238"/>
    <path opacity="0.1" d="M224.749 114.884C224.749 114.884 207.62 157.5 212.261 177.52C216.461 195.643 235.011 229.964 235.011 229.964L242.2 226.366C242.2 226.366 230.727 184.933 229.488 175.931C227.066 158.431 242.627 133.7 242.627 114.884H224.749Z" fill="white"/>
    <path d="M238.742 235.97L244.062 232.099C244.152 232.028 244.264 231.994 244.378 232.002C244.492 232.009 244.598 232.059 244.678 232.141L248.353 235.914C248.442 236.012 248.509 236.128 248.551 236.254C248.592 236.381 248.606 236.514 248.592 236.646C248.578 236.779 248.537 236.906 248.47 237.021C248.404 237.136 248.314 237.236 248.206 237.314C246.323 238.63 245.35 239.176 243.012 240.877C241.57 241.927 238.7 244.244 236.712 245.693C234.724 247.142 233.212 245.252 233.912 244.475C237.048 240.975 237.706 238.805 238.196 236.838C238.272 236.494 238.465 236.187 238.742 235.97Z" fill="#263238"/>
    <path d="M234.549 231.483L243.81 227.248L242.627 223.475L232.708 227.997L234.549 231.483Z" fill="#C8A74E"/>
    <path d="M229.292 80.0519C228.529 78.0639 221.837 75.8519 218.477 75.1519L217 86.1559C217 86.1559 222.488 94.0379 224.889 93.3869C227.731 92.6169 230.944 84.3149 229.292 80.0519Z" fill="#C8A74E"/>
    <path d="M229.292 80.0519C228.529 78.0639 221.837 75.8519 218.477 75.1519L217 86.1559C217 86.1559 222.488 94.0379 224.889 93.3869C227.731 92.6169 230.944 84.3149 229.292 80.0519Z" fill="#F47960"/>
    <path d="M221.949 79.4988C221.949 79.4988 219.149 80.4788 224.749 114.884H248.549C248.15 105.196 248.136 99.2178 252.749 79.3238C249.414 78.6357 246.033 78.1912 242.634 77.9938C239.036 77.7345 235.424 77.7345 231.826 77.9938C227.213 78.3998 221.949 79.4988 221.949 79.4988Z" fill="#C8A74E"/>
    <path d="M221.949 79.4988C221.949 79.4988 219.149 80.4788 224.749 114.884H248.549C248.15 105.196 248.136 99.2178 252.749 79.3238C249.414 78.6357 246.033 78.1912 242.634 77.9938C239.036 77.7345 235.424 77.7345 231.826 77.9938C227.213 78.3998 221.949 79.4988 221.949 79.4988Z" fill="#F47960"/>
    <path d="M248.92 113.491L249.991 115.591C250.075 115.759 249.879 115.927 249.606 115.927H224.63C224.413 115.927 224.238 115.822 224.224 115.682L224.007 113.582C224.007 113.435 224.182 113.309 224.413 113.309H248.5C248.58 113.296 248.662 113.307 248.736 113.339C248.811 113.371 248.874 113.424 248.92 113.491Z" fill="#C8A74E"/>
    <path opacity="0.3" d="M248.92 113.491L249.991 115.591C250.075 115.759 249.879 115.927 249.606 115.927H224.63C224.413 115.927 224.238 115.822 224.224 115.682L224.007 113.582C224.007 113.435 224.182 113.309 224.413 113.309H248.5C248.58 113.296 248.662 113.307 248.736 113.339C248.811 113.371 248.874 113.424 248.92 113.491Z" fill="white"/>
    <path d="M245.7 116.2H246.344C246.477 116.2 246.575 116.13 246.561 116.053L246.26 113.253C246.26 113.169 246.141 113.106 246.015 113.106H245.364C245.238 113.106 245.14 113.169 245.147 113.253L245.448 116.053C245.441 116.116 245.553 116.2 245.7 116.2Z" fill="#263238"/>
    <path d="M230.027 116.2H230.671C230.797 116.2 230.895 116.13 230.888 116.053L230.587 113.253C230.587 113.169 230.468 113.106 230.335 113.106H229.691C229.558 113.106 229.467 113.169 229.474 113.253L229.775 116.053C229.782 116.116 229.894 116.2 230.027 116.2Z" fill="#263238"/>
</svg>
